<svg xmlns="http://www.w3.org/2000/svg" xmlns:xlink="http://www.w3.org/1999/xlink" width="256" height="256" viewBox="0 0 256 256"><defs><linearGradient id="linear-gradient" x1=".554" x2=".052" y1=".58" y2=".409" gradientUnits="objectBoundingBox"><stop offset="0" stop-color="#6000ff"/><stop offset=".651" stop-color="#4900c3"/><stop offset="1" stop-color="#320086"/></linearGradient><linearGradient id="linear-gradient-2" x1=".06" x2=".486" y1="-.087" y2=".653" gradientUnits="objectBoundingBox"><stop offset="0" stop-color="#6a0aff"/><stop offset=".047" stop-color="#8c2dff"/><stop offset=".102" stop-color="#6a0aff"/><stop offset=".902" stop-color="#af50ff"/><stop offset="1" stop-color="#af50ff"/></linearGradient><linearGradient id="linear-gradient-3" x1="1.071" x2=".095" y1=".062" y2="1.049" gradientUnits="objectBoundingBox"><stop offset="0" stop-color="#6a0aff"/><stop offset=".51" stop-color="#8c2dff"/><stop offset=".969" stop-color="#af50ff"/><stop offset="1" stop-color="#af50ff"/></linearGradient><linearGradient id="linear-gradient-4" x1=".448" x2=".538" y1=".297" y2=".8" gradientUnits="objectBoundingBox"><stop offset="0" stop-color="#6000ff"/><stop offset="1" stop-color="#3e00a5"/></linearGradient><linearGradient id="linear-gradient-5" x1="-.529" x2="1.092" y1="1.069" y2=".86" gradientUnits="objectBoundingBox"><stop offset="0" stop-color="#ae60ff"/><stop offset=".322" stop-color="#af50ff"/><stop offset="1" stop-color="#6000ff"/></linearGradient><linearGradient id="linear-gradient-6" x1="-.111" x2=".872" y1=".274" y2="1.224" gradientUnits="objectBoundingBox"><stop offset="0" stop-color="#6f0fff"/><stop offset=".702" stop-color="#af50ff"/><stop offset="1" stop-color="#af50ff"/></linearGradient><linearGradient id="linear-gradient-7" x1=".015" x2=".986" y1=".007" y2=".949" gradientUnits="objectBoundingBox"><stop offset="0" stop-color="#ae60ff"/><stop offset=".031" stop-color="#b670fa"/><stop offset="1" stop-color="#be80f5"/></linearGradient></defs><g id="_WALLET" data-name="$WALLET" transform="translate(-141 -7374)"><g id="Layer_x0020_1" transform="translate(183.991 7374)"><g id="_1439445580464" transform="translate(0.009)"><path id="Path_3343" fill="#6000ff" d="M2993.7,3550.234l33.594,71.511a2.027,2.027,0,0,1-.413,2.23l-88.371,85.385a.98.98,0,0,1-1.655-.743v-78.449l55.687-53.758a1.809,1.809,0,0,0,.579-1.4l.166-24.773c0-.165.331-.165.414,0Z" data-name="Path 3343" transform="translate(-2857.034 -3453.627)"/><path id="Path_3344" fill="url(#linear-gradient)" fill-rule="evenodd" d="M2936.83,4562v78.448a.979.979,0,0,0,1.655.743h0l88.372-85.384a2.027,2.027,0,0,0,.415-2.23h0l-34.5-45.6Z" data-name="Path 3344" transform="translate(-2857.015 -4385.455)"/><path id="Path_3345" fill="url(#linear-gradient-2)" fill-rule="evenodd" d="M4995.8,3546.89h-.013a.19.19,0,0,0-.2.2h0l-.141,24.769a2.039,2.039,0,0,1-.324,1.153l34.638,46.747a2.157,2.157,0,0,0-.166-1.24h0L4996,3547a.231.231,0,0,0-.2-.115Z" data-name="Path 3345" transform="translate(-4859.365 -3450.494)"/><path id="Path_3346" fill="#be80f5" fill-rule="evenodd" d="M5082.057,4625.266a2.156,2.156,0,0,0-.166-1.239h0l-1.738-3.715-31.273-39.821Z" data-name="Path 3346" transform="translate(-4911.665 -4456.004)"/><path id="Path_3347" fill="#6000ff" d="M247.163,1334.462l-15.8,44.756a2.071,2.071,0,0,0,.083,1.569l14.729,28.985-40.546,22.957a1.063,1.063,0,0,1-1.407-.413l-8.771-18.25a1.756,1.756,0,0,1,.166-1.9l51.136-77.954A.252.252,0,0,1,247.163,1334.462Z" data-name="Path 3347" transform="translate(-189.937 -1297.888)"/><path id="Path_3348" fill="url(#linear-gradient-3)" fill-rule="evenodd" d="M336.408,1334.17h-.015a.229.229,0,0,0-.157.066h0l-48.951,74.622-.055.1,33.616-29.715.106-.3h0l.007-.021,15.691-44.434a.244.244,0,0,0-.242-.314Z" data-name="Path 3348" transform="translate(-279.424 -1297.911)"/><path id="Path_3349" fill="url(#linear-gradient-4)" fill-rule="evenodd" d="M195.626,3025.519a1.759,1.759,0,0,0-.166,1.9h0l8.77,18.25a1.062,1.062,0,0,0,1.408.412h0l40.544-22.956-14.728-28.984a2.063,2.063,0,0,1-.083-1.57l-35.746,32.949Z" data-name="Path 3349" transform="translate(-189.95 -2911.24)"/><path id="Path_3350" fill="url(#linear-gradient-5)" fill-rule="evenodd" d="M79.824.4V70.017a1.98,1.98,0,0,1-.413,1.157h0L.389,178.277a1.911,1.911,0,0,0,.248,2.56h0l55.44,53.51a.949.949,0,0,0,1.572-.33h0L117.887,93.058a2.281,2.281,0,0,0,0-1.487h0L80.569.241A.355.355,0,0,0,80.232,0h0a.406.406,0,0,0-.407.4Z" data-name="Path 3350" transform="translate(-0.009 -0.001)"/><path id="Path_3351" fill="url(#linear-gradient-6)" fill-rule="evenodd" d="M2933.522,0h-.006a.405.405,0,0,0-.407.4l.025,69.613a1.972,1.972,0,0,1-.1.578L2970.7,90.43,2933.852.24a.356.356,0,0,0-.331-.24Zm-.492,70.595,7.193,4.129Z" data-name="Path 3351" transform="translate(-2853.318)"/><path id="Path_3352" fill="url(#linear-gradient-7)" fill-rule="evenodd" d="M2971.346,2619.308v-.011a2.271,2.271,0,0,0-.117-.722h0l-.479-1.18-37.7-19.834,7.219,4.129Z" data-name="Path 3352" transform="translate(-2853.338 -2526.965)"/><path id="Path_3353" fill="#be80f5" d="M211.882,3022.3l-2.082,3.173,35.72-32.909Z" data-name="Path 3353" transform="translate(-204.098 -2911.23)"/></g></g><rect id="Rectangle_1607" width="256" height="256" fill="none" data-name="Rectangle 1607" transform="translate(141 7374)"/></g></svg>