<svg xmlns="http://www.w3.org/2000/svg" xmlns:xlink="http://www.w3.org/1999/xlink" id="레이어_1" x="0" y="0" version="1.1" viewBox="0 0 256 256" xml:space="preserve" style="enable-background:new 0 0 256 256"><g><circle style="fill:#040000" cx="128" cy="128" r="127"/><circle style="fill:#0c1433" cx="128" cy="128" r="127"/><g><polygon style="fill:#6fc8ef" points="68.882 47.152 108.294 70.017 68.882 93.784"/><polygon style="fill:#7acbeb" points="147.706 46.286 187.118 69.152 147.706 92.919"/><polygon style="fill:#6fc8ef" points="68.882 93.796 108.294 116.661 68.882 140.429"/><polygon style="fill:#24bbee" points="147.706 92.919 187.118 115.784 147.706 139.552"/><polygon style="fill:#009dd2" points="147.706 139.464 187.118 162.329 147.706 186.097"/><polygon style="fill:#0eabe1" points="108.294 116.649 147.706 139.514 108.294 163.282"/><polygon style="fill:#29bbee" points="68.882 140.279 108.294 163.144 68.882 186.911"/><polygon style="fill:#97d5ee" points="108.294 116.649 68.882 93.784 108.294 70.016"/><polygon style="fill:#4abfed" points="187.118 115.781 147.706 92.916 187.118 69.149"/><polygon style="fill:#0eade4" points="187.118 162.414 147.706 139.549 187.118 115.781"/><polygon style="fill:#4cc0ec" points="147.706 139.552 108.294 116.687 147.706 92.919"/><polygon style="fill:#4abfed" points="108.294 163.282 68.882 140.417 108.294 116.649"/><polygon style="fill:#04ade3" points="108.294 209.714 68.882 186.849 108.294 163.081"/><polygon style="fill:#06afe2" points="187.118 209.074 147.706 186.209 187.118 162.442"/></g></g></svg>