<svg xmlns="http://www.w3.org/2000/svg" width="256" height="256" fill="none" viewBox="0 0 512 512"><path fill="#fff" d="M512.056 256c0 141.385-114.615 256-256 256s-256-114.615-256-256S114.67 0 256.056 0s256 114.615 256 256Z"/><path fill="#ffff" d="M512.056 256c0 141.385-114.615 256-256 256s-256-114.615-256-256S114.67 0 256.056 0s256 114.615 256 256Z"/><path fill="url(#a)" d="M381.613 149H488.69C448.17 61.05 359.242 0 256.056 0c-141.385 0-256 114.615-256 256 0 .667.002 1.334.007 2h257.993L133.777 368H25.791c41.546 85.256 129.045 144 230.265 144 140.717 0 254.917-113.536 255.992-254H258.056l123.557-109Z"/><defs><linearGradient id="a" x1=".056" x2="512.056" y1="256" y2="256" gradientUnits="userSpaceOnUse"><stop stop-color="#29235C"/><stop offset="1" stop-color="#00A19A"/></linearGradient></defs></svg>