<svg xmlns="http://www.w3.org/2000/svg" xmlns:xlink="http://www.w3.org/1999/xlink" id="Laag_1" x="0" y="0" version="1.1" viewBox="0 0 283.5 283.5" xml:space="preserve" style="enable-background:new 0 0 283.5 283.5"><style type="text/css">.st3{fill:#020203}.st5{fill:#ffe505}</style><path d="M254.1,228.2c18.4-23.9,29.4-53.9,29.4-86.4C283.5,63.5,220,0,141.7,0S0,63.5,0,141.7s63.5,141.7,141.7,141.7	c31.2,0,60.1-10.1,83.5-27.2l58.2,26.1L254.1,228.2z" class="st5"/><g><path d="M102.9,124.9H84.2V176h-21v-51.1H44.5v-15.7h58.4V124.9z" class="st3"/><path d="M167.8,109.2V176h-21v-28.1H130V176h-21v-66.8h21v24h16.8v-24H167.8z" class="st3"/><path d="M218.2,176l-12.4-28.1L193.3,176h-20.8l16.6-34.1l-15.2-32.7h20.7l11.2,26.4l11.1-26.4h20.7l-15.2,32.7 L239,176H218.2z" class="st3"/></g></svg>