<svg xmlns="http://www.w3.org/2000/svg" xmlns:xlink="http://www.w3.org/1999/xlink" width="256" height="256" version="1.1" viewBox="0 0 256 256"><title>黄色 透明</title><g id="黄色-透明" fill="none" fill-rule="evenodd" stroke="none" stroke-width="1"><g id="编组-2" fill="#F7A600" transform="translate(48.000000, 55.000000)"><polygon id="路径备份-2" points="111.675 6.706 85.887 40.425 59.989 6.706 5.364 6.706 58.557 76.166 5.695 145.291 53.984 145.291 160 6.706" opacity=".5"/><polygon id="路径" points="106.31 0 80.523 33.72 54.625 0 0 0 53.192 69.461 .331 138.585 48.619 138.585 154.636 0"/><path id="形状结合" d="M132.24252,109.279416 L135.28852,113.256416 L110.84752,145.416416 L105.292273,145.417257 L105.09952,145.166416 L132.24252,109.279416 Z M156.24052,140.616416 L159.917043,145.417257 L152.67752,145.416416 L156.24052,140.616416 Z M138.38252,117.296416 L141.59552,121.492416 L123.48452,145.416416 L117.01252,145.416416 L138.38252,117.296416 Z M144.70752,125.555416 L147.57152,129.296416 L135.26052,145.416416 L129.67152,145.416416 L144.70752,125.555416 Z M150.68952,133.367416 L153.48652,137.020416 L147.25152,145.416416 L141.48652,145.416416 L150.68952,133.367416 Z M126.06052,101.205416 L129.14852,105.238416 L102.00052,141.131416 L98.8585204,137.040416 L126.06052,101.205416 Z M119.83252,93.0734158 L122.95952,97.1564158 L95.7535204,132.997416 L92.5365204,128.809416 L119.83252,93.0734158 Z M113.64352,84.9914158 L116.73252,89.0244158 L89.4315204,124.766416 L86.4555204,120.891416 L113.64352,84.9914158 Z"/></g></g></svg>