<svg xmlns="http://www.w3.org/2000/svg" xmlns:svg="http://www.w3.org/2000/svg" id="Capa_1" width="256" height="256" x="0" y="0" enable-background="new 0 0 32 32" version="1.1" viewBox="0 0 256 256" xml:space="preserve"><metadata id="metadata21"/><g id="g460" transform="matrix(0.32,0,0,0.32,-35.839997,-35.839993)"><g id="g5" transform="matrix(25.463921,0,0,25.522413,104.58999,103.65415)"><g id="g7"><g id="g9"><path id="path11" d="m 11.141,11.328 v 5.099 c 0,2.815 2.284,5.099 5.102,5.099 2.815,0 5.099,-2.283 5.099,-5.099 0,-2.816 -2.283,-5.099 -5.099,-5.099 -0.006,0 -0.015,0 -0.021,0 v 0 z" style="fill:#fb8a61"/><path id="path13" d="M 17.047,0.327 H 14.991 11.14 v 5.899 h 5.081 v 0 c 0.006,0 0.015,0 0.021,0 5.633,0 10.199,4.568 10.199,10.2 0,5.632 -4.566,10.2 -10.199,10.2 -5.635,0 -10.198,-4.568 -10.198,-10.2 V 11.327 H 0.291 v 4.666 h 0.037 c 0.009,8.66 7.029,15.679 15.691,15.679 8.666,0 15.689,-7.024 15.689,-15.693 C 31.709,7.661 25.233,0.855 17.047,0.327 Z" style="fill:#fb8a61"/></g></g></g><rect id="rect15" width="145.042" height="151.654" x="112.006" y="112.01" style="fill:#fb8a61;stroke-width:1.5534"/></g></svg>