<svg xmlns="http://www.w3.org/2000/svg" viewBox="0 0 300 300"><rect width="300" height="300" x="0" y="0" fill="#fff" class="logo-background-square"/><linearGradient id="d34755d1-041f-4b26-9ed3-5ed8fad8a841" x1="0%" x2="100%" y1="0%" y2="0%" gradientTransform="rotate(25)"><stop offset="0%" style="stop-color:#006678;stop-opacity:1"/><stop offset="100%" style="stop-color:#4fa8ff;stop-opacity:1"/></linearGradient><g id="ce3b93c2-6cdb-bd3f-85ad-1a845740df6c" fill="url(#d34755d1-041f-4b26-9ed3-5ed8fad8a841)" stroke="none" transform="matrix(0.8499999999999999,0,0,0.8499999999999999,23.1923013687134,20.412831783294706)"><svg xmlns="http://www.w3.org/2000/svg" viewBox="0 0 100 100"><path d="M13.572 36.355a3.616 3.616 0 0 0-3.615 3.616v21.694a3.614 3.614 0 0 0 3.615 3.615 3.615 3.615 0 0 0 3.616-3.615V39.971a3.617 3.617 0 0 0-3.616-3.616zm12.053-15.667a3.615 3.615 0 0 0-3.615 3.616v53.029a3.614 3.614 0 0 0 3.615 3.615 3.615 3.615 0 0 0 3.616-3.615V24.304a3.617 3.617 0 0 0-3.616-3.616zM37.677 8.636a3.616 3.616 0 0 0-3.616 3.616v77.133a3.615 3.615 0 0 0 7.232 0V12.252a3.617 3.617 0 0 0-3.616-3.616zm12.052 21.092a3.616 3.616 0 0 0-3.616 3.615v34.951a3.615 3.615 0 0 0 7.231 0V33.343a3.616 3.616 0 0 0-3.615-3.615zM61.78 8.636a3.616 3.616 0 0 0-3.615 3.616v77.133a3.615 3.615 0 0 0 7.23 0V12.252a3.615 3.615 0 0 0-3.615-3.616zm12.053 18.078a3.616 3.616 0 0 0-3.615 3.616v40.976a3.616 3.616 0 1 0 7.23 0V30.33a3.617 3.617 0 0 0-3.615-3.616zm12.052 10.244a3.617 3.617 0 0 0-3.616 3.616v20.489a3.616 3.616 0 0 0 7.231-.001V40.574a3.617 3.617 0 0 0-3.615-3.616z"/></svg></g></svg>