<svg xmlns="http://www.w3.org/2000/svg" xmlns:xlink="http://www.w3.org/1999/xlink" id="Layer_1" x="0" y="0" version="1.1" viewBox="0 0 256 256" xml:space="preserve" style="enable-background:new 0 0 256 256"><style type="text/css">.st0{fill:#acd905}.st1{fill:#aeafaa}.st2{fill:#5d6e3c}</style><g><path d="M133.3,149H75.9V65h57.4c19.7,0,35.7,16,35.7,35.7v12.5C169,133,153.1,149,133.3,149" class="st0"/><path d="M148.1,191H75.9v-42c0-23.2,18.8-42,42-42h30.3c23.2,0,42,18.8,42,42S171.3,191,148.1,191" class="st1"/><path d="M169,112.6v0.7c0,19.7-16,35.7-35.7,35.7H75.9c0-11.6,4.7-22.1,12.3-29.7c7.6-7.6,18.1-12.3,29.7-12.3h30.3 C155.8,107,162.9,109.1,169,112.6" class="st2"/></g></svg>