<svg xmlns="http://www.w3.org/2000/svg" width="650" height="650" fill="none" viewBox="0 0 650 650"><rect width="610" height="610" x="20" y="20" fill="#fff" rx="305"/><path fill="#000" fill-rule="evenodd" d="M411 369.5C411 404.018 383.018 432 348.5 432H239V218H348.5C383.018 218 411 245.982 411 280.5C411 297.915 401 325 375 325C401 325 411 352.085 411 369.5ZM375 280.5C375 295.136 363.136 307 348.5 307H275V254H348.5C363.136 254 375 265.864 375 280.5ZM375 369.5C375 354.864 363.136 343 348.5 343H275V396H348.5C363.136 396 375 384.136 375 369.5Z" clip-rule="evenodd"/><path fill="url(#paint0_radial_759_3258)" fill-opacity=".2" fill-rule="evenodd" d="M411 369.5C411 404.018 383.018 432 348.5 432H239V218H348.5C383.018 218 411 245.982 411 280.5C411 297.915 401 325 375 325C401 325 411 352.085 411 369.5ZM375 280.5C375 295.136 363.136 307 348.5 307H275V254H348.5C363.136 254 375 265.864 375 280.5ZM375 369.5C375 354.864 363.136 343 348.5 343H275V396H348.5C363.136 396 375 384.136 375 369.5Z" clip-rule="evenodd"/><g filter="url(#filter0_dd_759_3258)"><rect width="36" height="125" x="307" y="343" fill="#000"/><rect width="36" height="125" x="307" y="343" fill="url(#paint1_linear_759_3258)" fill-opacity=".2"/></g><path fill="#000" d="M239 468H411V504H239V468Z"/><g filter="url(#filter1_dd_759_3258)"><rect width="36" height="125" x="343" y="307" fill="#000" transform="rotate(-180 343 307)"/><rect width="36" height="125" x="343" y="307" fill="url(#paint2_linear_759_3258)" fill-opacity=".2" transform="rotate(-180 343 307)"/></g><path fill="#000" d="M239 146H411V182H239V146Z"/><rect width="610" height="610" x="20" y="20" stroke="#000" stroke-width="40" rx="305"/><defs><filter id="filter0_dd_759_3258" width="96" height="165" x="277" y="323" color-interpolation-filters="sRGB" filterUnits="userSpaceOnUse"><feFlood flood-opacity="0" result="BackgroundImageFix"/><feColorMatrix in="SourceAlpha" result="hardAlpha" type="matrix" values="0 0 0 0 0 0 0 0 0 0 0 0 0 0 0 0 0 0 127 0"/><feOffset dx="10"/><feGaussianBlur stdDeviation="10"/><feComposite in2="hardAlpha" operator="out"/><feColorMatrix type="matrix" values="0 0 0 0 0 0 0 0 0 0 0 0 0 0 0 0 0 0 0.25 0"/><feBlend in2="BackgroundImageFix" mode="normal" result="effect1_dropShadow_759_3258"/><feColorMatrix in="SourceAlpha" result="hardAlpha" type="matrix" values="0 0 0 0 0 0 0 0 0 0 0 0 0 0 0 0 0 0 127 0"/><feOffset dx="-10"/><feGaussianBlur stdDeviation="10"/><feComposite in2="hardAlpha" operator="out"/><feColorMatrix type="matrix" values="0 0 0 0 0 0 0 0 0 0 0 0 0 0 0 0 0 0 0.25 0"/><feBlend in2="effect1_dropShadow_759_3258" mode="normal" result="effect2_dropShadow_759_3258"/><feBlend in="SourceGraphic" in2="effect2_dropShadow_759_3258" mode="normal" result="shape"/></filter><filter id="filter1_dd_759_3258" width="96" height="165" x="277" y="162" color-interpolation-filters="sRGB" filterUnits="userSpaceOnUse"><feFlood flood-opacity="0" result="BackgroundImageFix"/><feColorMatrix in="SourceAlpha" result="hardAlpha" type="matrix" values="0 0 0 0 0 0 0 0 0 0 0 0 0 0 0 0 0 0 127 0"/><feOffset dx="10"/><feGaussianBlur stdDeviation="10"/><feComposite in2="hardAlpha" operator="out"/><feColorMatrix type="matrix" values="0 0 0 0 0 0 0 0 0 0 0 0 0 0 0 0 0 0 0.25 0"/><feBlend in2="BackgroundImageFix" mode="normal" result="effect1_dropShadow_759_3258"/><feColorMatrix in="SourceAlpha" result="hardAlpha" type="matrix" values="0 0 0 0 0 0 0 0 0 0 0 0 0 0 0 0 0 0 127 0"/><feOffset dx="-10"/><feGaussianBlur stdDeviation="10"/><feComposite in2="hardAlpha" operator="out"/><feColorMatrix type="matrix" values="0 0 0 0 0 0 0 0 0 0 0 0 0 0 0 0 0 0 0.25 0"/><feBlend in2="effect1_dropShadow_759_3258" mode="normal" result="effect2_dropShadow_759_3258"/><feBlend in="SourceGraphic" in2="effect2_dropShadow_759_3258" mode="normal" result="shape"/></filter><radialGradient id="paint0_radial_759_3258" cx="0" cy="0" r="1" gradientTransform="translate(317 413.27) rotate(176.218) scale(28.0611 34.2106)" gradientUnits="userSpaceOnUse"><stop/><stop offset="1" stop-opacity="0"/></radialGradient><linearGradient id="paint1_linear_759_3258" x1="325" x2="325" y1="343" y2="395" gradientUnits="userSpaceOnUse"><stop stop-color="#fff"/><stop offset="1" stop-color="#fff" stop-opacity="0"/></linearGradient><linearGradient id="paint2_linear_759_3258" x1="361" x2="361" y1="307" y2="359" gradientUnits="userSpaceOnUse"><stop stop-color="#fff"/><stop offset="1" stop-color="#fff" stop-opacity="0"/></linearGradient></defs></svg>