<svg xmlns="http://www.w3.org/2000/svg" width="164" height="164" fill="none" viewBox="0 0 164 164"><circle cx="81.754" cy="81.754" r="81.754" fill="#16262D"/><path fill="#5FF" fill-rule="evenodd" d="M110.3 33.6636L92.5254 43.7296V84.535L110.3 74.2402V33.6636Z" clip-rule="evenodd"/><path fill="#5FF" fill-rule="evenodd" d="M74.7515 110.968L110.251 130.983L110.3 110.995L74.7515 91.1704V110.968Z" clip-rule="evenodd"/><path fill="#5FF" fill-rule="evenodd" d="M23.6494 83.7316L40.556 93.3829L74.7509 74.1945L57.658 64.6293L23.6494 83.7316Z" clip-rule="evenodd"/><path fill="#5FF" fill-rule="evenodd" d="M88.1974 73.6632L60.9347 58.163C56.2551 55.5021 53.373 50.5869 53.373 45.2664V34.3265L88.0031 54.0149L88.1974 73.6632Z" clip-rule="evenodd"/><path fill="#5FF" fill-rule="evenodd" d="M139.859 81.9625L105.159 101.476L87.9033 91.6647L114.786 76.381C119.535 73.6803 125.386 73.687 130.128 76.3994L139.859 81.9625Z" clip-rule="evenodd"/><path fill="#5FF" fill-rule="evenodd" d="M70.706 81.7332L70.6421 112.534C70.6316 117.931 67.6865 122.911 62.9255 125.583L53.3096 130.984L53.3735 91.6611L70.706 81.7332Z" clip-rule="evenodd"/></svg>