<svg xmlns="http://www.w3.org/2000/svg" xmlns:xlink="http://www.w3.org/1999/xlink" width="78" height="78" version="1.1" viewBox="0 0 78 78"><title>Group 3</title><defs><linearGradient id="linearGradient-1" x1="10.493%" x2="92.253%" y1="0%" y2="100%"><stop offset="0%" stop-color="#0093ED"/><stop offset="100%" stop-color="#00F3AB"/></linearGradient><linearGradient id="linearGradient-2" x1="55.836%" x2="35.706%" y1="92.56%" y2="0%"><stop offset="0%" stop-color="#000A17"/><stop offset="100%" stop-color="#00554F"/></linearGradient><linearGradient id="linearGradient-3" x1="55.837%" x2="35.703%" y1="92.56%" y2="0%"><stop offset="0%" stop-color="#000A17"/><stop offset="100%" stop-color="#00554F"/></linearGradient><linearGradient id="linearGradient-4" x1="58.1%" x2="30.16%" y1="92.56%" y2="0%"><stop offset="0%" stop-color="#000A17"/><stop offset="100%" stop-color="#00554F"/></linearGradient><linearGradient id="linearGradient-5" x1="58.092%" x2="30.181%" y1="92.56%" y2="0%"><stop offset="0%" stop-color="#000A17"/><stop offset="100%" stop-color="#00554F"/></linearGradient><linearGradient id="linearGradient-6" x1="64.694%" x2="14.009%" y1="92.56%" y2="0%"><stop offset="0%" stop-color="#000A17"/><stop offset="100%" stop-color="#00554F"/></linearGradient><linearGradient id="linearGradient-7" x1="64.698%" x2="14%" y1="92.56%" y2="0%"><stop offset="0%" stop-color="#000A17"/><stop offset="100%" stop-color="#00554F"/></linearGradient><linearGradient id="linearGradient-8" x1="66%" x2="10.812%" y1="92.56%" y2="0%"><stop offset="0%" stop-color="#000A17"/><stop offset="100%" stop-color="#00554F"/></linearGradient><linearGradient id="linearGradient-9" x1="29.843%" x2="71.557%" y1="0%" y2="100%"><stop offset="0%" stop-color="#0093ED"/><stop offset="100%" stop-color="#00F3AB"/></linearGradient></defs><g id="staker---staking-flow" fill="none" fill-rule="evenodd" stroke="none" stroke-width="1"><g id="copy-2-1" transform="translate(-299.000000, -152.000000)"><g id="Group-3" transform="translate(300.000000, 153.000000)"><g id="cosmos-logo-horizontal-dark"><path id="Path" fill="url(#linearGradient-1)" stroke="#00F3AB" stroke-opacity=".2" d="M37.9999365,0 C58.9867462,0 76,17.0131586 76,37.9999365 C76,58.9867462 58.9867462,76 37.9999365,76 C17.0131586,76 0,58.9867462 0,37.9999365 C0,17.0131586 17.0131586,0 37.9999365,0 Z"/><g id="eth-crypto-cryptocurrency-cryptocurrencies-cash-money-bank-payment_95451" fill-rule="nonzero" transform="translate(22.000000, 12.000000)"><g id="Group"><polygon id="Path" fill="url(#linearGradient-2)" points="15.996 0 15.996 19.222 31.989 26.482"/><polygon id="Path" fill="url(#linearGradient-3)" points="15.996 0 0 26.482 15.996 19.222"/><polygon id="Path" fill="url(#linearGradient-4)" points="15.996 38.939 15.996 52 32 29.507"/><polygon id="Path" fill="url(#linearGradient-5)" points="15.996 52 15.996 38.937 0 29.507"/><polygon id="Path" fill="url(#linearGradient-6)" points="15.996 35.916 31.989 26.482 15.996 19.227"/><polygon id="Path" fill="url(#linearGradient-7)" points="0 26.482 15.996 35.916 15.996 19.227"/></g></g></g><g id="Group-12" transform="translate(7.000000, 10.000000)"><circle id="Combined-Shape-Copy-5" cx="6.5" cy="6.5" r="6.5" fill="url(#linearGradient-8)"/><path id="Path" fill="url(#linearGradient-9)" d="M5.76537585,4.68486739 L5.76537585,3 L4,3 L4,10 L5.76537585,10 L5.76537585,7.69266771 C5.76537585,6.49453978 7.42824601,5.14664587 8.80637813,5.14664587 L9,5.14664587 L9,3.21216849 L8.80637813,3.21216849 C7.59908884,3.21216849 6.31207289,3.71138846 5.76537585,4.68486739 Z"/></g></g></g></g></svg>